<svg width="406" height="306" viewBox="0 0 406 306" fill="none" xmlns="http://www.w3.org/2000/svg">
<path d="M145.457 58.3819H230.093V110.902C230.093 111.971 229.669 112.997 228.912 113.753C228.156 114.509 227.131 114.934 226.061 114.934H149.489C148.419 114.934 147.394 114.509 146.638 113.753C145.882 112.997 145.457 111.971 145.457 110.902V58.3819Z" fill="white"/>
<path d="M226.061 115.411H149.488C148.291 115.408 147.144 114.931 146.299 114.083C145.453 113.236 144.979 112.088 144.979 110.891V58.3819C144.978 58.2543 145.028 58.1318 145.118 58.0405C145.207 57.9493 145.328 57.8966 145.456 57.8939H230.092C230.222 57.8939 230.346 57.9453 230.438 58.0368C230.529 58.1284 230.581 58.2525 230.581 58.3819V110.891C230.581 112.09 230.104 113.24 229.257 114.087C228.409 114.935 227.259 115.411 226.061 115.411V115.411ZM145.944 58.87V110.859C145.944 111.8 146.317 112.703 146.981 113.369C147.646 114.035 148.547 114.411 149.488 114.414H226.061C227.003 114.414 227.907 114.039 228.574 113.373C229.241 112.706 229.615 111.802 229.615 110.859V58.87H145.944Z" fill="#231F20"/>
<path d="M149.489 50.87H226.061C227.131 50.87 228.156 51.2947 228.912 52.0509C229.669 52.807 230.093 53.8325 230.093 54.9018V58.3819H145.457V54.9018C145.457 53.8325 145.882 52.807 146.638 52.0509C147.394 51.2947 148.419 50.87 149.489 50.87Z" fill="white"/>
<path d="M230.092 58.8701H145.456C145.328 58.8673 145.207 58.8147 145.118 58.7234C145.028 58.6322 144.978 58.5096 144.979 58.382V54.9019C144.981 53.7068 145.457 52.5615 146.302 51.7165C147.147 50.8714 148.293 50.3954 149.488 50.3926H226.061C227.254 50.3982 228.396 50.8754 229.239 51.7202C230.082 52.5649 230.557 53.7087 230.559 54.9019V58.382C230.559 58.5079 230.511 58.6289 230.424 58.7198C230.337 58.8108 230.218 58.8646 230.092 58.8701V58.8701ZM145.944 57.8939H229.615V54.9019C229.612 53.9611 229.236 53.0597 228.57 52.3954C227.904 51.7312 227.001 51.3581 226.061 51.3581H149.488C148.549 51.3609 147.649 51.7352 146.985 52.3992C146.321 53.0632 145.947 53.9629 145.944 54.9019V57.8939Z" fill="#1D1C1B"/>
<path d="M166.294 79.4002C169.306 79.4002 171.748 76.9586 171.748 73.9467C171.748 70.9349 169.306 68.4933 166.294 68.4933C163.282 68.4933 160.841 70.9349 160.841 73.9467C160.841 76.9586 163.282 79.4002 166.294 79.4002Z" fill="#1D1C1B"/>
<path d="M156.385 90.4347C156.469 87.8612 157.55 85.4213 159.4 83.6307C161.251 81.84 163.725 80.8389 166.299 80.8389C168.874 80.8389 171.348 81.84 173.198 83.6307C175.049 85.4213 176.13 87.8612 176.214 90.4347H156.385Z" fill="#1D1C1B"/>
<path d="M209.254 79.4002C212.266 79.4002 214.708 76.9586 214.708 73.9467C214.708 70.9349 212.266 68.4933 209.254 68.4933C206.242 68.4933 203.801 70.9349 203.801 73.9467C203.801 76.9586 206.242 79.4002 209.254 79.4002Z" fill="#1D1C1B"/>
<path d="M199.344 90.4347C199.429 87.8612 200.51 85.4213 202.36 83.6307C204.211 81.84 206.685 80.8389 209.259 80.8389C211.834 80.8389 214.308 81.84 216.158 83.6307C218.009 85.4213 219.09 87.8612 219.174 90.4347H199.344Z" fill="#1D1C1B"/>
<path d="M197.085 74.4348H184.353C184.223 74.4348 184.099 74.3834 184.008 74.2919C183.916 74.2004 183.865 74.0762 183.865 73.9468C183.865 73.8174 183.916 73.6932 184.008 73.6017C184.099 73.5102 184.223 73.4587 184.353 73.4587H195.96L193.424 70.7957C193.379 70.7513 193.344 70.6984 193.319 70.6401C193.295 70.5818 193.282 70.5193 193.282 70.4562C193.282 70.393 193.295 70.3305 193.319 70.2722C193.344 70.2139 193.379 70.161 193.424 70.1166C193.517 70.0278 193.641 69.9782 193.769 69.9782C193.897 69.9782 194.021 70.0278 194.114 70.1166L197.424 73.6073C197.491 73.6741 197.535 73.7596 197.553 73.8524C197.57 73.9452 197.558 74.041 197.52 74.1272C197.485 74.2151 197.425 74.291 197.348 74.3456C197.271 74.4002 197.179 74.4312 197.085 74.4348Z" fill="#1D1C1B"/>
<path d="M193.902 77.5436C193.77 77.5423 193.644 77.4889 193.552 77.3951C193.46 77.3035 193.409 77.1795 193.409 77.0502C193.409 76.9209 193.46 76.7969 193.552 76.7054L196.735 73.6073C196.828 73.5229 196.951 73.4782 197.078 73.4825C197.204 73.4868 197.323 73.5399 197.411 73.6305C197.499 73.7211 197.548 73.8423 197.549 73.9686C197.549 74.0948 197.501 74.2163 197.414 74.3076L194.231 77.4057C194.142 77.4915 194.025 77.5408 193.902 77.5436V77.5436Z" fill="#1D1C1B"/>
<path d="M191.048 78.5197H178.316C178.222 78.5213 178.129 78.495 178.05 78.444C177.97 78.393 177.908 78.3197 177.87 78.2333C177.832 78.1452 177.821 78.048 177.838 77.9537C177.855 77.8593 177.899 77.7721 177.966 77.7028L181.276 74.2228C181.319 74.1741 181.372 74.1346 181.431 74.1067C181.49 74.0787 181.554 74.0628 181.619 74.0599C181.684 74.0571 181.749 74.0673 181.81 74.0899C181.871 74.1126 181.927 74.1473 181.975 74.1919C182.022 74.2366 182.06 74.2903 182.087 74.3499C182.113 74.4095 182.127 74.4738 182.128 74.539C182.129 74.6042 182.117 74.6689 182.093 74.7294C182.069 74.7899 182.033 74.8449 181.987 74.8912L179.44 77.5436H191.048C191.176 77.5463 191.299 77.5986 191.39 77.6896C191.481 77.7805 191.533 77.9031 191.536 78.0317C191.536 78.1611 191.484 78.2853 191.393 78.3768C191.301 78.4683 191.177 78.5197 191.048 78.5197V78.5197Z" fill="#1D1C1B"/>
<path d="M181.489 81.6179C181.427 81.6188 181.366 81.607 181.31 81.5833C181.253 81.5595 181.202 81.5243 181.16 81.4799L177.977 78.3925C177.888 78.2997 177.838 78.1762 177.838 78.0477C177.838 77.9192 177.888 77.7957 177.977 77.7029C178.068 77.6115 178.192 77.5602 178.322 77.5602C178.451 77.5602 178.575 77.6115 178.666 77.7029L181.849 80.8009C181.894 80.8453 181.93 80.8982 181.954 80.9565C181.979 81.0148 181.991 81.0773 181.991 81.1404C181.991 81.2036 181.979 81.2661 181.954 81.3244C181.93 81.3827 181.894 81.4355 181.849 81.4799C181.801 81.5258 181.745 81.5616 181.683 81.5853C181.621 81.6089 181.555 81.62 181.489 81.6179Z" fill="#1D1C1B"/>
<path d="M213.011 96.8541H162.539C162.398 96.8541 162.263 96.7982 162.164 96.6987C162.064 96.5992 162.008 96.4643 162.008 96.3236C162.011 96.1837 162.068 96.0504 162.167 95.9515C162.266 95.8525 162.399 95.7958 162.539 95.7931H213.011C213.152 95.7931 213.287 95.849 213.386 95.9484C213.486 96.0479 213.541 96.1829 213.541 96.3236C213.541 96.4643 213.486 96.5992 213.386 96.6987C213.287 96.7982 213.152 96.8541 213.011 96.8541Z" fill="#D3D1CF"/>
<path d="M213.011 100.44H162.539C162.398 100.44 162.263 100.384 162.164 100.285C162.064 100.185 162.008 100.05 162.008 99.9097C162.011 99.7698 162.068 99.6365 162.167 99.5376C162.266 99.4387 162.399 99.3819 162.539 99.3792H213.011C213.152 99.3792 213.287 99.4351 213.386 99.5346C213.486 99.6341 213.541 99.769 213.541 99.9097C213.541 100.05 213.486 100.185 213.386 100.285C213.287 100.384 213.152 100.44 213.011 100.44Z" fill="#D3D1CF"/>
<path d="M207.823 104.069H162.539C162.398 104.069 162.263 104.013 162.164 103.913C162.064 103.814 162.008 103.679 162.008 103.538C162.011 103.399 162.068 103.265 162.167 103.166C162.266 103.067 162.399 103.011 162.539 103.008H207.823C207.962 103.011 208.096 103.067 208.195 103.166C208.294 103.265 208.35 103.399 208.353 103.538C208.353 103.679 208.297 103.814 208.198 103.913C208.098 104.013 207.963 104.069 207.823 104.069Z" fill="#D3D1CF"/>
<path d="M151.408 55.9203C152.123 55.9203 152.703 55.3408 152.703 54.6259C152.703 53.9111 152.123 53.3315 151.408 53.3315C150.694 53.3315 150.114 53.9111 150.114 54.6259C150.114 55.3408 150.694 55.9203 151.408 55.9203Z" fill="#1D1C1B"/>
<path d="M155.971 55.9203C156.686 55.9203 157.266 55.3408 157.266 54.6259C157.266 53.9111 156.686 53.3315 155.971 53.3315C155.256 53.3315 154.677 53.9111 154.677 54.6259C154.677 55.3408 155.256 55.9203 155.971 55.9203Z" fill="#D3D1CF"/>
<path d="M160.533 55.9203C161.248 55.9203 161.828 55.3408 161.828 54.6259C161.828 53.9111 161.248 53.3315 160.533 53.3315C159.818 53.3315 159.239 53.9111 159.239 54.6259C159.239 55.3408 159.818 55.9203 160.533 55.9203Z" fill="#D3D1CF"/>
<path d="M243.196 53.5332H352.416V182.424C352.416 183.831 351.857 185.181 350.862 186.175C349.867 187.17 348.518 187.729 347.111 187.729H248.49C247.083 187.729 245.734 187.17 244.739 186.175C243.744 185.181 243.185 183.831 243.185 182.424V53.5332H243.196Z" fill="white"/>
<path d="M347.111 188.26H248.438C246.892 188.257 245.41 187.641 244.318 186.547C243.226 185.453 242.613 183.97 242.613 182.424V53.5331C242.613 53.3924 242.669 53.2575 242.768 53.158C242.868 53.0585 243.003 53.0026 243.143 53.0026H352.416C352.557 53.0026 352.692 53.0585 352.791 53.158C352.891 53.2575 352.947 53.3924 352.947 53.5331V182.424C352.944 183.971 352.328 185.454 351.235 186.547C350.141 187.641 348.658 188.257 347.111 188.26V188.26ZM243.727 54.0636V182.445C243.727 183.71 244.228 184.923 245.122 185.818C246.015 186.713 247.226 187.217 248.491 187.22H347.164C348.43 187.217 349.643 186.713 350.537 185.818C351.432 184.924 351.936 183.711 351.939 182.445V54.0636H243.727Z" fill="#1D1C1B"/>
<path d="M330.145 177.109H265.424C264.063 177.098 262.761 176.554 261.797 175.594C260.833 174.634 260.284 173.334 260.267 171.973V168.896C260.27 167.521 260.817 166.203 261.79 165.231C262.762 164.258 264.08 163.711 265.455 163.708H330.177C331.553 163.708 332.873 164.255 333.846 165.228C334.819 166.201 335.365 167.52 335.365 168.896V171.973C335.351 173.346 334.794 174.657 333.816 175.619C332.837 176.582 331.517 177.117 330.145 177.109V177.109ZM265.424 164.769C264.334 164.778 263.293 165.216 262.526 165.989C261.759 166.762 261.328 167.807 261.328 168.896V171.973C261.331 173.066 261.767 174.113 262.541 174.885C263.314 175.657 264.363 176.09 265.455 176.09H330.177C331.27 176.09 332.318 175.657 333.092 174.885C333.865 174.113 334.301 173.066 334.304 171.973V168.896C334.304 167.802 333.869 166.752 333.095 165.978C332.321 165.204 331.271 164.769 330.177 164.769H265.424Z" fill="#1D1C1B"/>
<path d="M267.472 88.854H258.814V151.252H267.472V88.854Z" fill="#1D1C1B"/>
<path d="M283.451 103.464H274.793V151.241H283.451V103.464Z" fill="#1D1C1B"/>
<path d="M299.419 93.9469H290.761V151.252H299.419V93.9469Z" fill="#1D1C1B"/>
<path d="M315.398 111.209H306.74V151.241H315.398V111.209Z" fill="#1D1C1B"/>
<path d="M331.376 93.9469H322.718V151.252H331.376V93.9469Z" fill="#1D1C1B"/>
<path d="M331.175 64.8116H316.502C316.361 64.8116 316.226 64.7557 316.127 64.6562C316.027 64.5567 315.971 64.4218 315.971 64.2811C315.971 64.1404 316.027 64.0054 316.127 63.906C316.226 63.8065 316.361 63.7506 316.502 63.7506H331.154C331.294 63.7533 331.427 63.8101 331.526 63.909C331.625 64.0079 331.682 64.1412 331.684 64.2811C331.684 64.4182 331.631 64.55 331.537 64.6489C331.442 64.7478 331.312 64.8061 331.175 64.8116Z" fill="#231F20"/>
<path d="M326.051 70.2758H316.502C316.361 70.2758 316.226 70.2199 316.127 70.1204C316.027 70.0209 315.971 69.886 315.971 69.7453C315.971 69.6046 316.027 69.4697 316.127 69.3702C316.226 69.2707 316.361 69.2148 316.502 69.2148H326.051C326.191 69.2148 326.326 69.2707 326.426 69.3702C326.525 69.4697 326.581 69.6046 326.581 69.7453C326.581 69.886 326.525 70.0209 326.426 70.1204C326.326 70.2199 326.191 70.2758 326.051 70.2758Z" fill="#231F20"/>
<path d="M312.14 94.5941C307.514 94.5941 303.482 89.4376 300.235 85.2785C298.113 82.5835 296.129 79.9734 294.803 79.9734C293.296 79.9734 291.217 81.2148 289.02 82.488C286.028 84.2175 282.654 86.1803 279.471 86C273.519 85.6817 262.336 72.5464 261.869 71.9841C261.825 71.9342 261.792 71.8761 261.771 71.8132C261.75 71.7502 261.741 71.6837 261.746 71.6175C261.751 71.5512 261.769 71.4867 261.8 71.4276C261.83 71.3684 261.871 71.316 261.922 71.2732C262.019 71.1798 262.148 71.1277 262.283 71.1277C262.418 71.1277 262.547 71.1798 262.644 71.2732C262.75 71.4111 274.007 84.6419 279.524 84.9389C282.432 85.1087 285.678 83.2201 288.543 81.5543C290.856 80.2175 293.042 78.9549 294.803 78.9018C296.564 78.8488 298.612 81.3634 301.095 84.557C304.278 88.6206 308.203 93.671 312.458 93.4694C316.14 93.2891 317.901 90.0848 319.768 86.6896C321.636 83.2944 323.408 80.0477 327.132 79.3368C327.258 79.3268 327.383 79.3639 327.483 79.441C327.583 79.5181 327.651 79.6296 327.673 79.7539C327.696 79.8782 327.671 80.0064 327.604 80.1136C327.538 80.2208 327.434 80.2995 327.312 80.3342C324.065 80.9496 322.41 83.9734 320.649 87.1777C318.739 90.6684 316.755 94.2758 312.511 94.488L312.14 94.5941Z" fill="#D3D1CF"/>
<path d="M338.782 151.751H251.78C251.713 151.751 251.648 151.737 251.586 151.712C251.525 151.686 251.47 151.648 251.423 151.601C251.377 151.553 251.34 151.497 251.316 151.435C251.292 151.374 251.28 151.308 251.281 151.241C251.286 151.112 251.341 150.989 251.434 150.898C251.526 150.808 251.65 150.756 251.78 150.753H338.782C338.917 150.753 339.047 150.807 339.142 150.902C339.238 150.998 339.292 151.127 339.292 151.263C339.29 151.328 339.276 151.393 339.25 151.453C339.223 151.513 339.185 151.567 339.138 151.612C339.091 151.657 339.035 151.693 338.974 151.717C338.913 151.74 338.848 151.752 338.782 151.751V151.751Z" fill="#D3D1CF"/>
<path d="M262.39 73.6074C262.004 73.6074 261.626 73.4929 261.305 73.2783C260.984 73.0638 260.734 72.7589 260.586 72.4022C260.439 72.0455 260.4 71.653 260.475 71.2743C260.551 70.8956 260.737 70.5478 261.01 70.2747C261.283 70.0017 261.63 69.8158 262.009 69.7405C262.388 69.6651 262.78 69.7038 263.137 69.8515C263.494 69.9993 263.799 70.2495 264.013 70.5706C264.228 70.8916 264.342 71.269 264.342 71.6551C264.342 72.1729 264.136 72.6695 263.77 73.0356C263.404 73.4017 262.908 73.6074 262.39 73.6074ZM262.39 70.7215C262.203 70.7215 262.02 70.7772 261.864 70.8814C261.709 70.9856 261.588 71.1337 261.517 71.3069C261.445 71.4801 261.427 71.6705 261.465 71.8539C261.502 72.0374 261.593 72.2056 261.726 72.3372C261.859 72.4689 262.028 72.5579 262.212 72.5932C262.396 72.6284 262.586 72.6082 262.759 72.5351C262.931 72.462 263.078 72.3393 263.18 72.1826C263.283 72.0259 263.336 71.8423 263.334 71.6551C263.334 71.5316 263.31 71.4094 263.262 71.2954C263.215 71.1814 263.145 71.078 263.057 70.9912C262.969 70.9043 262.865 70.8358 262.751 70.7895C262.636 70.7432 262.513 70.7201 262.39 70.7215V70.7215Z" fill="#D3D1CF"/>
<path d="M327.111 81.8937C326.725 81.8916 326.349 81.7754 326.029 81.5596C325.709 81.3438 325.461 81.0382 325.315 80.6813C325.169 80.3244 325.131 79.9322 325.208 79.5542C325.285 79.1762 325.471 78.8294 325.745 78.5574C326.018 78.2854 326.366 78.1006 326.744 78.0261C327.123 77.9516 327.515 77.9909 327.871 78.139C328.227 78.287 328.531 78.5372 328.745 78.8581C328.959 79.1789 329.074 79.5559 329.074 79.9415C329.071 80.4603 328.863 80.9568 328.495 81.3226C328.127 81.6884 327.63 81.8937 327.111 81.8937ZM327.111 78.9973C326.924 78.9973 326.741 79.0526 326.586 79.1564C326.431 79.2601 326.31 79.4076 326.238 79.5802C326.167 79.7527 326.148 79.9426 326.185 80.1257C326.221 80.3089 326.311 80.4772 326.443 80.6092C326.575 80.7413 326.743 80.8312 326.927 80.8677C327.11 80.9041 327.3 80.8854 327.472 80.8139C327.645 80.7425 327.792 80.6214 327.896 80.4661C328 80.3108 328.055 80.1283 328.055 79.9415C328.055 79.6911 327.956 79.4509 327.779 79.2738C327.601 79.0967 327.361 78.9973 327.111 78.9973V78.9973Z" fill="#D3D1CF"/>
<path d="M248.49 42.5305H347.111C348.518 42.5305 349.867 43.0895 350.862 44.0843C351.857 45.0792 352.416 46.4286 352.416 47.8356V53.512H243.196V47.8356C243.196 46.4304 243.753 45.0827 244.746 44.0881C245.738 43.0935 247.085 42.5333 248.49 42.5305V42.5305Z" fill="white"/>
<path d="M352.416 54.0636H243.196C243.055 54.0636 242.92 54.0078 242.821 53.9083C242.721 53.8088 242.666 53.6738 242.666 53.5331V47.8355C242.666 46.2897 243.279 44.807 244.371 43.7129C245.463 42.6189 246.945 42.0028 248.49 42H347.164C348.711 42.0028 350.194 42.6185 351.287 43.7123C352.381 44.8061 352.997 46.2887 353 47.8355V53.5119C353.003 53.588 352.99 53.664 352.961 53.7347C352.933 53.8053 352.889 53.869 352.834 53.9213C352.779 53.9737 352.713 54.0135 352.641 54.0381C352.568 54.0626 352.492 54.0713 352.416 54.0636ZM243.727 53.0026H351.886V47.8355C351.883 46.5701 351.379 45.3573 350.484 44.4625C349.589 43.5677 348.376 43.0638 347.111 43.061H248.437C247.173 43.0638 245.961 43.5681 245.068 44.4632C244.175 45.3583 243.673 46.5711 243.673 47.8355L243.727 53.0026Z" fill="#1D1C1B"/>
<path d="M130.496 108.133H57.4249C55.2744 108.133 53.531 109.876 53.531 112.026V203.591C53.531 205.742 55.2744 207.485 57.4249 207.485H130.496C132.647 207.485 134.39 205.742 134.39 203.591V112.026C134.39 109.876 132.647 108.133 130.496 108.133Z" fill="white"/>
<path d="M130.496 208.048H57.4244C56.251 208.048 55.1256 207.581 54.2959 206.752C53.4661 205.922 53 204.797 53 203.623V112.027C53.0028 110.854 53.4698 109.73 54.299 108.901C55.1281 108.072 56.2518 107.605 57.4244 107.602H130.496C131.668 107.605 132.792 108.072 133.621 108.901C134.45 109.73 134.918 110.854 134.92 112.027V203.591C134.925 204.175 134.813 204.754 134.593 205.294C134.372 205.835 134.047 206.326 133.636 206.741C133.225 207.155 132.735 207.483 132.196 207.708C131.658 207.932 131.08 208.048 130.496 208.048V208.048ZM57.4244 108.663C56.5332 108.666 55.6794 109.021 55.0492 109.651C54.4191 110.281 54.0638 111.135 54.061 112.027V203.591C54.0568 204.036 54.1407 204.477 54.3078 204.888C54.475 205.3 54.7221 205.675 55.0348 205.99C55.3475 206.306 55.7197 206.557 56.1299 206.728C56.54 206.899 56.98 206.987 57.4244 206.987H130.496C131.388 206.987 132.243 206.632 132.874 206.002C133.505 205.371 133.859 204.515 133.859 203.623V112.027C133.857 111.135 133.501 110.281 132.871 109.651C132.241 109.021 131.387 108.666 130.496 108.663H57.4244Z" fill="#1D1C1B"/>
<path d="M114.007 186.498H70.4319C70.2912 186.498 70.1562 186.442 70.0567 186.343C69.9573 186.244 69.9014 186.109 69.9014 185.968C69.9041 185.828 69.9608 185.695 70.0598 185.596C70.1587 185.497 70.292 185.44 70.4319 185.437H114.007C114.148 185.437 114.283 185.493 114.383 185.593C114.482 185.692 114.538 185.827 114.538 185.968C114.538 186.109 114.482 186.244 114.383 186.343C114.283 186.442 114.148 186.498 114.007 186.498Z" fill="#D3D1CF"/>
<path d="M92.9671 193.618H70.4319C70.292 193.615 70.1587 193.558 70.0597 193.459C69.9608 193.36 69.9041 193.227 69.9014 193.087C69.9014 192.947 69.9573 192.812 70.0567 192.712C70.1562 192.613 70.2912 192.557 70.4319 192.557H92.9671C93.1078 192.557 93.2427 192.613 93.3422 192.712C93.4417 192.812 93.4976 192.947 93.4976 193.087C93.4949 193.227 93.4381 193.36 93.3392 193.459C93.2403 193.558 93.107 193.615 92.9671 193.618V193.618Z" fill="#D3D1CF"/>
<path d="M73.1268 130.499C79.4929 136.865 85.8341 143.209 92.1507 149.533C92.2474 149.638 92.3658 149.721 92.4977 149.776C92.6296 149.831 92.7718 149.857 92.9146 149.851H122.06C121.901 154.353 120.661 158.751 118.446 162.674C116.232 166.597 113.106 169.93 109.334 172.392C105.561 174.854 101.252 176.373 96.7699 176.822C92.2875 177.27 87.7629 176.635 83.5774 174.969C79.392 173.302 75.6683 170.655 72.7203 167.249C69.7722 163.842 67.686 159.777 66.6377 155.396C65.5893 151.015 65.6094 146.446 66.6962 142.074C67.7831 137.702 69.9049 133.656 72.8828 130.276L73.1268 130.499Z" fill="#1D1C1B"/>
<path d="M94.9731 120.705V147.845H95.249L121.519 147.782C122.102 147.782 122.102 147.782 122.06 147.198C121.729 142.036 119.992 137.064 117.037 132.818C114.082 128.573 110.022 125.217 105.297 123.114C102.412 121.854 99.3403 121.076 96.2039 120.812L94.9731 120.705Z" fill="#D3D1CF"/>
<path d="M92.9683 147.485V120.727C89.8127 120.89 86.702 121.545 83.7484 122.668C80.2152 124.066 76.9921 126.146 74.2632 128.79L92.9683 147.485Z" fill="#D3D1CF"/>
<path d="M177.192 133.034C170.942 131.156 167.643 123.846 165.977 118.032C164.109 111.422 161.913 106.01 164.576 99.1245C165.181 97.5436 166.157 95.9415 167.759 95.4322C168.159 95.3746 168.545 95.2414 168.895 95.0396C169.173 94.7645 169.381 94.4259 169.499 94.0529C173.298 85.098 184.046 84.854 192.109 86.1166C196.778 86.8487 202.836 88.9813 204.29 93.777C206.953 102.615 204.704 112.228 199.802 119.867C195.218 127.05 186.55 135.899 177.192 133.034Z" fill="white"/>
<path d="M180.766 134.095C179.504 134.099 178.249 133.913 177.042 133.544V133.544C170.517 131.581 167.143 124.111 165.467 118.18C165.254 117.427 165.042 116.684 164.819 115.952C163.122 110.191 161.636 105.204 164.077 98.9761C164.936 96.7374 166.146 95.3899 167.642 94.9655L167.96 94.8912C168.219 94.8934 168.47 94.8007 168.665 94.6307C168.861 94.4607 168.987 94.225 169.021 93.9681C172.978 84.6737 183.875 84.313 192.236 85.6392C195.419 86.1379 203.122 87.931 204.851 93.671C207.376 102.074 205.721 111.708 200.299 120.196C195.705 127.273 188.469 134.095 180.766 134.095ZM185.477 86.0955C179.111 86.0955 172.745 87.8992 170.018 94.2546C169.876 94.7156 169.612 95.1298 169.254 95.4535C168.938 95.6756 168.575 95.8209 168.193 95.8779L167.928 95.9522C166.772 96.2705 165.806 97.4058 165.063 99.3156C162.772 105.247 164.193 110.074 165.838 115.655C166.061 116.387 166.273 117.13 166.496 117.894C168.098 123.56 171.281 130.711 177.35 132.536C185.838 135.072 194.326 127.507 199.387 119.581C204.639 111.39 206.252 102.042 203.811 93.9257C202.252 88.7692 195.069 87.114 192.055 86.6472C189.88 86.294 187.681 86.1096 185.477 86.0955V86.0955Z" fill="#1D1C1B"/>
<path d="M205.583 115.146C205.583 115.146 212.278 123.517 211.228 125.48C210.178 127.443 206.018 126.541 206.018 126.541" fill="white"/>
<path d="M208.002 127.315C207.289 127.316 206.579 127.245 205.88 127.103C205.739 127.075 205.616 126.992 205.536 126.873C205.456 126.753 205.428 126.607 205.456 126.466C205.484 126.326 205.567 126.202 205.686 126.122C205.806 126.043 205.952 126.014 206.092 126.042C207.153 126.254 210.029 126.53 210.729 125.214C211.281 124.154 208.246 119.347 205.137 115.453C205.049 115.343 205.007 115.202 205.021 115.062C205.035 114.921 205.103 114.791 205.212 114.7C205.324 114.615 205.465 114.577 205.605 114.593C205.745 114.609 205.874 114.677 205.965 114.785C207.588 116.822 212.798 123.602 211.662 125.713C211.005 127.018 209.339 127.315 208.002 127.315Z" fill="#1D1C1B"/>
<path d="M203.25 103.475C207.282 106.191 206.783 112.769 207.133 116.981C207.621 122.902 207.975 128.836 208.194 134.785C208.332 138.552 198.645 139.517 196.81 138.552L199.674 153.247L178.571 147.262L177.669 130.085C177.669 130.085 184.035 129.544 187.218 121.597C190.401 113.65 189.096 101.862 189.096 101.862C189.096 101.862 199.313 100.812 203.25 103.475Z" fill="white"/>
<path d="M199.674 153.777H199.526L178.401 147.793C178.294 147.764 178.198 147.703 178.128 147.617C178.058 147.532 178.016 147.426 178.008 147.316L177.106 130.127C177.1 129.992 177.147 129.859 177.235 129.756C177.324 129.654 177.449 129.589 177.584 129.575C177.839 129.575 183.727 128.949 186.666 121.385C189.69 113.597 188.523 102.011 188.512 101.894C188.503 101.753 188.545 101.614 188.629 101.501C188.674 101.447 188.728 101.402 188.79 101.37C188.852 101.337 188.92 101.317 188.99 101.31C189.414 101.31 199.504 100.324 203.547 103.05C207.122 105.469 207.345 110.562 207.526 114.721C207.526 115.528 207.6 116.302 207.663 117.013C208.152 122.934 208.512 128.928 208.724 134.838C208.72 135.437 208.546 136.023 208.223 136.528C207.9 137.033 207.442 137.437 206.9 137.692C204.427 139.241 199.759 139.761 197.488 139.379L200.194 153.172C200.211 153.262 200.205 153.355 200.177 153.442C200.15 153.529 200.101 153.608 200.035 153.671C199.93 153.745 199.803 153.782 199.674 153.777V153.777ZM179.048 146.859L198.984 152.504L196.289 138.658C196.267 138.559 196.274 138.456 196.31 138.362C196.345 138.267 196.409 138.186 196.491 138.127C196.576 138.076 196.673 138.048 196.772 138.048C196.871 138.048 196.969 138.076 197.053 138.127C198.231 138.753 203.685 138.424 206.337 136.769C207.25 136.196 207.695 135.549 207.663 134.849C207.451 128.949 207.091 122.965 206.602 117.066C206.539 116.345 206.507 115.56 206.465 114.732C206.295 110.87 206.083 106.064 202.953 103.952C199.77 101.767 191.738 102.191 189.616 102.339C189.817 104.769 190.433 114.647 187.653 121.788C184.873 128.928 179.833 130.276 178.189 130.583L179.048 146.859Z" fill="#1D1C1B"/>
<path d="M207.652 130.382C207.652 130.382 201.838 130.382 200.448 122.53Z" fill="white"/>
<path d="M207.652 130.912C207.589 130.912 201.371 130.817 199.918 122.626C199.896 122.487 199.929 122.345 200.01 122.23C200.092 122.115 200.214 122.036 200.353 122.011C200.49 121.986 200.632 122.016 200.748 122.096C200.863 122.175 200.942 122.297 200.968 122.435C202.252 129.734 207.44 129.862 207.652 129.862C207.793 129.862 207.928 129.918 208.027 130.017C208.127 130.117 208.183 130.252 208.183 130.392C208.18 130.531 208.123 130.663 208.024 130.761C207.924 130.858 207.791 130.912 207.652 130.912Z" fill="#1D1C1B"/>
<path d="M194.57 119.984C194.268 118.52 193.566 117.169 192.544 116.079C191.873 115.134 191.065 114.294 190.146 113.586C189.685 113.234 189.152 112.99 188.585 112.871C188.018 112.751 187.431 112.76 186.868 112.896C186.39 113.07 185.955 113.342 185.589 113.695C185.224 114.048 184.936 114.473 184.746 114.944C184.365 115.897 184.201 116.923 184.268 117.947C184.368 120.186 185.058 122.359 186.267 124.246C187.476 126.133 189.162 127.668 191.154 128.695L190.804 128.366" fill="white"/>
<path d="M191.122 129.204C191.04 129.202 190.96 129.181 190.888 129.14C188.818 128.064 187.065 126.465 185.805 124.501C184.545 122.537 183.821 120.277 183.706 117.947C183.64 116.86 183.818 115.773 184.225 114.764C184.451 114.218 184.79 113.727 185.22 113.323C185.65 112.919 186.161 112.611 186.719 112.419C187.359 112.258 188.027 112.242 188.673 112.375C189.32 112.507 189.928 112.783 190.453 113.183C191.416 113.916 192.261 114.793 192.957 115.782C194.043 116.949 194.778 118.398 195.079 119.963C195.094 120.102 195.053 120.241 194.966 120.351C194.879 120.46 194.751 120.53 194.612 120.546C194.473 120.561 194.334 120.52 194.224 120.433C194.115 120.345 194.045 120.218 194.029 120.079C193.73 118.712 193.066 117.451 192.108 116.43C191.472 115.53 190.707 114.73 189.838 114.053C189.442 113.748 188.984 113.534 188.496 113.428C188.008 113.322 187.502 113.325 187.016 113.438C186.605 113.586 186.229 113.819 185.915 114.123C185.6 114.426 185.354 114.793 185.191 115.199C184.84 116.078 184.691 117.024 184.756 117.968C184.857 119.978 185.45 121.932 186.482 123.66C187.514 125.388 188.954 126.836 190.676 127.878C190.754 127.862 190.834 127.865 190.909 127.888C190.985 127.91 191.054 127.95 191.111 128.005L191.472 128.323C191.555 128.394 191.615 128.49 191.642 128.597C191.669 128.703 191.662 128.815 191.622 128.918C191.583 129.02 191.512 129.108 191.421 129.169C191.329 129.229 191.221 129.26 191.111 129.257L191.122 129.204Z" fill="#1D1C1B"/>
<path d="M196.809 138.552C196.809 138.552 191.621 137.491 188.968 134.202C188.968 134.202 189.902 142.053 197.859 143.963L196.809 138.552Z" fill="#1D1C1B"/>
<path d="M197.859 144.493H197.732C189.509 142.53 188.448 134.371 188.438 134.286C188.424 134.172 188.447 134.057 188.505 133.957C188.562 133.858 188.65 133.78 188.756 133.735C188.861 133.688 188.978 133.677 189.089 133.704C189.2 133.731 189.299 133.794 189.371 133.883C191.886 136.949 196.862 138.042 196.915 138.053C197.018 138.074 197.113 138.126 197.187 138.202C197.26 138.277 197.31 138.373 197.329 138.477L198.39 143.878C198.405 143.955 198.404 144.034 198.385 144.111C198.366 144.187 198.331 144.258 198.281 144.319C198.231 144.38 198.168 144.429 198.097 144.463C198.026 144.497 197.948 144.514 197.87 144.514L197.859 144.493ZM189.902 135.878C190.418 137.605 191.352 139.179 192.622 140.46C193.891 141.74 195.457 142.688 197.18 143.22L196.353 138.976C194.013 138.406 191.817 137.358 189.902 135.899V135.878Z" fill="#1D1C1B"/>
<path d="M202.678 111.421C202.768 110.252 202.467 109.276 202.006 109.241C201.544 109.205 201.097 110.123 201.007 111.292C200.916 112.46 201.217 113.436 201.679 113.472C202.14 113.507 202.588 112.589 202.678 111.421Z" fill="#231F20"/>
<path d="M146.623 182.414L135.737 201.512L107.387 172.419C107.387 172.419 109.678 160.058 106.623 161.045C104.692 161.732 103.013 162.986 101.806 164.642C101.806 164.642 99.2912 147.666 92.6705 153.246C86.0498 158.827 89.0949 168.631 94.1135 178.053C97.8376 185.045 130.93 236.047 140.108 234C149.286 231.952 171.079 185.628 171.079 185.628L146.623 182.414Z" fill="white"/>
<path d="M139.6 234.573C129.17 234.573 96.9683 184.536 93.6474 178.339C89.467 170.477 84.7774 159.241 92.3317 152.875C93.7323 151.687 95.0904 151.326 96.3742 151.814C99.8543 153.13 101.573 160.525 102.125 163.485C103.301 162.174 104.796 161.187 106.464 160.62C106.69 160.532 106.935 160.508 107.173 160.552C107.411 160.595 107.632 160.703 107.812 160.865C109.584 162.424 108.342 170.159 107.96 172.323L135.621 200.62L146.167 182.127C146.219 182.035 146.297 181.961 146.392 181.913C146.486 181.866 146.593 181.848 146.698 181.862L171.101 185.045C171.184 185.055 171.263 185.086 171.332 185.134C171.4 185.182 171.456 185.246 171.493 185.321C171.53 185.395 171.549 185.477 171.549 185.559C171.549 185.642 171.53 185.724 171.493 185.798C170.592 187.697 149.467 232.387 140.151 234.456C139.972 234.512 139.787 234.551 139.6 234.573V234.573ZM95.2389 152.631C94.3938 152.709 93.604 153.085 93.0108 153.692C87.7058 158.191 88.2044 165.872 94.5917 177.851C98.6341 185.448 131.472 235.411 139.992 233.533C148.226 231.697 167.578 191.75 170.295 186.106L146.952 183.029L136.236 201.819C136.195 201.89 136.139 201.951 136.07 201.997C136.002 202.043 135.925 202.073 135.844 202.085C135.762 202.096 135.679 202.088 135.601 202.06C135.524 202.032 135.454 201.986 135.398 201.925L107.048 172.833C106.99 172.771 106.947 172.697 106.923 172.616C106.9 172.535 106.895 172.449 106.91 172.366C107.631 168.451 108.194 162.541 107.154 161.628C107.154 161.628 107.037 161.533 106.825 161.628C105.011 162.285 103.432 163.463 102.284 165.013C102.222 165.101 102.136 165.169 102.036 165.208C101.936 165.248 101.827 165.258 101.722 165.236C101.619 165.212 101.525 165.157 101.454 165.08C101.382 165.002 101.335 164.905 101.318 164.801C100.883 161.862 99.101 154 96.0134 152.854C95.7719 152.731 95.5089 152.655 95.2389 152.631V152.631Z" fill="#1D1C1B"/>
<path d="M229.552 173.851C229.552 173.851 251.493 168.164 259.716 163.337C268.735 158.032 285.721 124.525 291.239 116.196C294.233 111.597 296.459 106.54 297.828 101.225C298.464 98.8488 298.761 97.13 297.573 94.8594C297.329 94.382 293.435 90.1167 293.255 90.6154C294.316 87.634 295.377 84.8011 296.501 81.8515C296.798 81.0345 297.021 80.0053 296.395 79.4112C296.121 79.1969 295.783 79.0805 295.435 79.0805C295.087 79.0805 294.749 79.1969 294.475 79.4112C293.921 79.8352 293.472 80.3794 293.159 81.0027L284.141 96.6419C284.213 94.7108 283.824 92.7903 283.005 91.0398C282.876 90.6884 282.643 90.3848 282.337 90.1698C281.35 89.618 280.395 90.9655 280.087 92.0477C278.485 97.6923 279.642 104.493 276.183 109.491C273.552 113.289 250.178 141.321 250.178 141.321L229.552 146.626" fill="white"/>
<path d="M229.552 174.382C229.411 174.4 229.269 174.362 229.156 174.275C229.044 174.189 228.971 174.061 228.952 173.92C228.934 173.78 228.972 173.637 229.059 173.525C229.145 173.413 229.273 173.339 229.414 173.321C229.637 173.268 251.387 167.613 259.451 162.87C265.976 159.029 277.064 139.602 284.406 126.743C287.058 122.106 289.339 118.095 290.772 115.899C293.73 111.333 295.927 106.316 297.276 101.045C297.881 98.8169 298.199 97.1936 297.064 95.0185C295.929 93.5958 294.664 92.2816 293.286 91.0928C293.209 91.1085 293.13 91.1085 293.053 91.0928C292.92 91.0447 292.812 90.9469 292.751 90.8201C292.689 90.6933 292.68 90.5475 292.724 90.4138V90.4138C293.371 88.5039 294.093 86.626 294.782 84.801C295.186 83.74 295.578 82.679 295.971 81.618C296.363 80.557 296.331 80.0583 295.971 79.7506C295.788 79.6154 295.567 79.5424 295.339 79.5424C295.112 79.5424 294.891 79.6154 294.708 79.7506C294.233 80.1442 293.849 80.6366 293.583 81.1936L284.533 96.8647C284.475 96.9683 284.384 97.0489 284.274 97.0933C284.164 97.1377 284.042 97.1431 283.928 97.1087C283.837 97.0688 283.758 97.0038 283.702 96.9212C283.645 96.8386 283.614 96.7418 283.61 96.6419C283.672 94.8152 283.308 92.9993 282.549 91.3368C282.459 91.0892 282.301 90.8721 282.093 90.7108C282.035 90.6773 281.969 90.6597 281.902 90.6597C281.835 90.6597 281.769 90.6773 281.711 90.7108C281.168 91.0831 280.789 91.6487 280.65 92.2917C280.104 94.4492 279.749 96.6504 279.589 98.87C279.239 102.69 278.867 106.647 276.618 109.883C274.008 113.671 251.536 140.568 250.581 141.713C250.51 141.799 250.413 141.858 250.305 141.883L229.679 147.188C229.543 147.221 229.399 147.199 229.278 147.128C229.158 147.057 229.069 146.941 229.032 146.806C229.014 146.739 229.01 146.668 229.02 146.599C229.03 146.53 229.053 146.464 229.088 146.403C229.124 146.343 229.171 146.291 229.227 146.249C229.283 146.207 229.346 146.176 229.414 146.159L249.881 140.854C251.61 138.732 273.223 112.843 275.748 109.236C277.87 106.223 278.188 102.403 278.538 98.7214C278.686 96.4341 279.041 94.1648 279.599 91.9416C279.711 91.4655 279.921 91.0179 280.215 90.6271C280.509 90.2362 280.881 89.9107 281.308 89.6711C281.517 89.5823 281.744 89.5437 281.97 89.5584C282.197 89.5732 282.417 89.6408 282.613 89.7559C283.02 89.9999 283.334 90.3735 283.504 90.8169C284.09 92.0699 284.466 93.4104 284.618 94.7851L292.724 80.7268C293.079 80.0253 293.591 79.4153 294.22 78.9443C294.598 78.6677 295.057 78.5239 295.525 78.5354C295.994 78.5469 296.445 78.7131 296.809 79.0079C297.467 79.6339 297.552 80.6525 297.042 82.0212C296.65 83.0822 296.247 84.1432 295.843 85.2042C295.217 86.8594 294.57 88.5676 293.965 90.297C295.495 91.5499 296.876 92.9739 298.082 94.5411C299.387 97.0451 299.026 98.9336 298.379 101.332C296.993 106.698 294.747 111.804 291.727 116.451C290.284 118.626 288.013 122.615 285.361 127.231C277.52 140.96 266.793 159.772 260.013 163.751C251.833 168.568 230.613 174.085 229.711 174.361L229.552 174.382Z" fill="#231F20"/>
<path d="M234.803 265.342L227.939 234.127L159.472 252.493C159.472 252.493 159.61 257.618 159.801 265.321L234.803 265.342Z" fill="#1D1C1B"/>
<path d="M248.597 139.082C248.597 139.082 170.698 137.438 160.809 151.422C153.113 163.026 146.669 175.414 141.583 188.377L155.589 201.469C155.527 219.986 156.469 238.492 158.411 256.907C182.549 261.151 232.554 241.841 232.13 241.65L225.764 176.928L255.578 167.719L248.597 139.082Z" fill="#1D1C1B"/>
<path d="M154.676 196.61C154.606 196.607 154.538 196.591 154.475 196.562C154.411 196.532 154.354 196.491 154.307 196.44C154.26 196.389 154.223 196.328 154.199 196.263C154.175 196.198 154.164 196.128 154.167 196.058C154.167 194.891 155.09 167.273 158.878 157.618C158.902 157.552 158.94 157.492 158.988 157.441C159.036 157.391 159.095 157.35 159.159 157.322C159.223 157.295 159.293 157.28 159.363 157.28C159.433 157.28 159.503 157.294 159.567 157.321C159.633 157.344 159.692 157.381 159.743 157.428C159.794 157.476 159.834 157.533 159.862 157.596C159.89 157.66 159.905 157.729 159.905 157.798C159.905 157.867 159.891 157.936 159.864 158C156.151 167.485 155.238 195.814 155.228 196.09C155.222 196.232 155.161 196.366 155.058 196.463C154.955 196.56 154.818 196.613 154.676 196.61Z" fill="#231F20"/>
<path d="M215.101 180.238C214.986 180.24 214.873 180.204 214.781 180.135C214.689 180.065 214.622 179.968 214.591 179.856C214.555 179.72 214.574 179.575 214.643 179.452C214.713 179.329 214.827 179.238 214.963 179.199L236.978 172.939C237.119 172.899 237.269 172.918 237.397 172.989C237.524 173.061 237.618 173.18 237.657 173.321C237.697 173.462 237.679 173.612 237.607 173.739C237.535 173.867 237.416 173.96 237.275 174L215.249 180.26C215.199 180.263 215.148 180.256 215.101 180.238Z" fill="#231F20"/>
<path d="M301.573 254.668H263.069C262.535 254.669 262.006 254.565 261.513 254.361C261.019 254.157 260.57 253.858 260.193 253.481C259.815 253.103 259.516 252.654 259.312 252.161C259.108 251.667 259.004 251.138 259.006 250.604V208.068C259.006 207.535 259.111 207.006 259.315 206.513C259.519 206.02 259.819 205.572 260.196 205.195C260.573 204.817 261.021 204.518 261.514 204.314C262.007 204.11 262.536 204.005 263.069 204.005H297.022L305.594 212.365V250.562C305.6 251.095 305.5 251.625 305.301 252.12C305.102 252.615 304.808 253.066 304.434 253.448C304.061 253.829 303.616 254.133 303.125 254.342C302.634 254.552 302.107 254.662 301.573 254.668V254.668Z" fill="white"/>
<path d="M301.169 255.093H262.665C261.447 255.093 260.278 254.609 259.417 253.747C258.555 252.885 258.071 251.717 258.071 250.498V207.963C258.074 206.745 258.559 205.578 259.42 204.717C260.281 203.856 261.448 203.371 262.665 203.368H296.618C296.686 203.367 296.755 203.379 296.819 203.405C296.882 203.43 296.94 203.468 296.989 203.517L305.573 211.888C305.672 211.987 305.729 212.12 305.732 212.26V250.456C305.74 251.675 305.265 252.848 304.409 253.718C303.554 254.587 302.389 255.081 301.169 255.093V255.093ZM262.665 204.429C261.729 204.432 260.832 204.805 260.17 205.467C259.508 206.129 259.135 207.026 259.132 207.963V250.488C259.132 250.952 259.224 251.411 259.401 251.84C259.579 252.269 259.839 252.658 260.167 252.986C260.495 253.314 260.885 253.574 261.313 253.752C261.742 253.93 262.201 254.021 262.665 254.021H301.169C302.106 254.018 303.003 253.645 303.665 252.983C304.327 252.321 304.7 251.424 304.703 250.488V212.483L296.437 204.429H262.665Z" fill="#1D1C1B"/>
<path d="M249.816 49.9574C250.8 49.9574 251.598 49.1594 251.598 48.175C251.598 47.1905 250.8 46.3925 249.816 46.3925C248.831 46.3925 248.033 47.1905 248.033 48.175C248.033 49.1594 248.831 49.9574 249.816 49.9574Z" fill="#1D1C1B"/>
<path d="M256.002 49.9574C256.987 49.9574 257.785 49.1594 257.785 48.175C257.785 47.1905 256.987 46.3925 256.002 46.3925C255.018 46.3925 254.22 47.1905 254.22 48.175C254.22 49.1594 255.018 49.9574 256.002 49.9574Z" fill="#D3D1CF"/>
<path d="M262.188 49.9574C263.172 49.9574 263.97 49.1594 263.97 48.175C263.97 47.1905 263.172 46.3925 262.188 46.3925C261.204 46.3925 260.406 47.1905 260.406 48.175C260.406 49.1594 261.204 49.9574 262.188 49.9574Z" fill="#D3D1CF"/>
<path d="M296.342 76.1537C296.221 76.1528 296.104 76.1075 296.013 76.0264C295.912 75.9399 295.848 75.8169 295.836 75.684C295.824 75.551 295.865 75.4187 295.95 75.3156L300.533 69.8833C300.581 69.8263 300.641 69.7806 300.709 69.7495C300.777 69.7183 300.851 69.7024 300.926 69.703H312.395C312.535 69.703 312.67 69.7588 312.77 69.8583C312.869 69.9578 312.925 70.0928 312.925 70.2334C312.925 70.3741 312.869 70.5091 312.77 70.6086C312.67 70.708 312.535 70.7639 312.395 70.7639H301.138L296.703 76.0688C296.598 76.1414 296.469 76.1717 296.342 76.1537V76.1537Z" fill="#D3D1CF"/>
<path d="M296.66 203.899V212.514L305.233 212.26L296.66 203.899Z" fill="#1D1C1B"/>
<path d="M296.65 213.045C296.515 213.044 296.386 212.99 296.289 212.896C296.235 212.848 296.193 212.789 296.163 212.723C296.134 212.657 296.119 212.586 296.119 212.514V203.899C296.121 203.794 296.153 203.693 296.212 203.606C296.27 203.52 296.352 203.452 296.448 203.411C296.543 203.369 296.649 203.357 296.751 203.376C296.853 203.395 296.947 203.444 297.021 203.517L305.605 211.888C305.677 211.962 305.726 212.054 305.746 212.155C305.766 212.256 305.757 212.361 305.719 212.457C305.68 212.552 305.615 212.635 305.531 212.694C305.446 212.753 305.347 212.786 305.244 212.79L296.671 213.045H296.65ZM297.18 205.161V211.973L303.96 211.771L297.18 205.161Z" fill="#26262A"/>
<path d="M111.09 226.307H100.194C98.5939 226.307 97.2971 227.604 97.2971 229.204V240.1C97.2971 241.7 98.5939 242.997 100.194 242.997H111.09C112.69 242.997 113.986 241.7 113.986 240.1V229.204C113.986 227.604 112.69 226.307 111.09 226.307Z" fill="#1D1C1B"/>
<path d="M108.215 220.96H96.9576C95.4575 220.96 94.2415 222.176 94.2415 223.676V234.933C94.2415 236.433 95.4575 237.649 96.9576 237.649H108.215C109.715 237.649 110.931 236.433 110.931 234.933V223.676C110.931 222.176 109.715 220.96 108.215 220.96Z" fill="white"/>
<path d="M108.215 238.18H96.9575C96.5294 238.183 96.1049 238.101 95.7086 237.939C95.3122 237.777 94.9518 237.538 94.6481 237.236C94.3444 236.935 94.1033 236.576 93.9388 236.181C93.7744 235.785 93.6897 235.361 93.6897 234.933V223.676C93.6897 222.815 94.0318 221.989 94.6406 221.38C95.2495 220.772 96.0752 220.43 96.9363 220.43H108.193C108.62 220.43 109.042 220.514 109.436 220.677C109.83 220.84 110.188 221.079 110.489 221.38C110.79 221.682 111.03 222.04 111.193 222.434C111.356 222.828 111.44 223.25 111.44 223.676V234.933C111.44 235.791 111.101 236.613 110.497 237.221C109.892 237.83 109.072 238.174 108.215 238.18V238.18ZM96.9575 221.491C96.6687 221.488 96.3822 221.542 96.1146 221.651C95.847 221.759 95.6035 221.92 95.3983 222.123C95.1931 222.326 95.0302 222.568 94.9191 222.835C94.8079 223.101 94.7507 223.387 94.7507 223.676V234.933C94.7507 235.513 94.981 236.069 95.3908 236.479C95.8007 236.889 96.3566 237.119 96.9363 237.119H108.193C108.773 237.119 109.329 236.889 109.739 236.479C110.149 236.069 110.379 235.513 110.379 234.933V223.676C110.379 223.096 110.149 222.541 109.739 222.131C109.329 221.721 108.773 221.491 108.193 221.491H96.9575Z" fill="#1D1C1B"/>
<path fill-rule="evenodd" clip-rule="evenodd" d="M270.006 218.005L280.221 231.231V231.644H273.974V235.228H280.221V237.009H273.974V240.594H280.221V246.005H283.792V240.594H290.039V237.009H283.792V235.228H290.039V231.644H283.792V231.231L294.006 218.005H289.572L282.006 227.625L274.441 218.005H270.006Z" fill="#1D1C1B"/>
</svg>
